Skyfall 2012 DVDSCR NO WATERMARK XviD-SHOWTiME


Source:Skyfall 2012 DVDSCR x264-P2P....THX

 
http://www.imdb.com/title/tt1074638/


Format                           : AVI
Format/Info                      : Audio Video Interleave
File size                        : 1.37 GiB
Duration                         : 2h 23mn
Overall bit rate                 : 1 374 Kbps
Writing library                  : VirtualDub build 33848/release

Video
ID                               : 0
Format                           : MPEG-4 Visual
Format profile                   : Advanced Simple@L5
Format settings, BVOP            : Yes
Format settings, QPel            : No
Format settings, GMC             : No warppoints
Format settings, Matrix          : Default (H.263)
Muxing mode                      : Packed bitstream
Codec ID                         : XVID
Codec ID/Hint                    : XviD
Duration                         : 2h 23mn
Bit rate                         : 1 173 Kbps
Width                            : 680 pixels
Height                           : 286 pixels
Display aspect ratio             : 2.35:1
Frame rate                       : 23.976 fps
Color space                      : YUV
Chroma subsampling               : 4:2:0
Bit depth                        : 8 bits
Scan type                        : Progressive
Bits/(Pixel*Frame)               : 0.252
Stream size                      : 1.17 GiB (85%)
Writing library                  : XviD 1.2.1 (UTC 2008-12-04)

Audio
ID                               : 1
Format                           : MPEG Audio
Format version                   : Version 1
Format profile                   : Layer 3
Mode                             : Joint stereo
Mode extension                   : MS Stereo
Codec ID                         : 55
Codec ID/Hint                    : MP3
Duration                         : 2h 23mn
Bit rate mode                    : Constant
Bit rate                         : 192 Kbps
Channel(s)                       : 2 channels
Sampling rate                    : 48.0 KHz
Stream size                      : 197 MiB (14%)
Alignment                        : Split accross interleaves
Interleave, duration             : 42 ms (1.00 video frame)
Interleave, preload duration     : 500 ms
Writing library                  : LAME3.98.2

WORKDONE:

First off, we got the DVD screener the way we wanted it by adjusting the AR to 2.35:1 and resized video. The video had a grainy look to it so we used a denoiser and a HQ smoother to make it look nicer . Also adjust the level a bit to our liking. After that was all done, we had to do 17 cuts in the video to seperate the watermark. There was a total of 8 time it appears for 20secs long. I wasnt able to remove it completely the way I wanted to so we had to go with a light blur to it. Hardly noticeable at times. So Enjoy! 

Audio - change to mp3 192kbps


Poster:

 
http://imgon.net/di-NBU3.jpg


Screenshots:

 
http://imgon.net/di-285Y.jpg


SEED AND ENJOY!